<svg xmlns="http://www.w3.org/2000/svg"
     viewBox="0 0 1024 1024"
     width="1024"
     height="1024">
    <g fill="currentColor" fill-opacity="0.0" stroke-opacity="0.00" stroke-width="0.3">
        <path d="
M 0.00 1024.00 
L 1024.00 1024.00
L 1024.00 0.00
L 0.00 0.00
L 0.00 1024.00
M 613.00 351.00 
C 586.53 350.83 560.04 350.44 535.00 356.00
C 537.29 325.23 547.17 290.78 560.93 263.93 C 574.68 237.08 589.80 217.29 612.25 196.25 C 634.70 175.20 658.61 162.42 688.07 153.07 C 717.54 143.73 761.58 142.36 791.23 152.77 C 820.88 163.18 844.29 187.15 838.22 220.22 C 832.15 253.29 782.86 257.91 768.25 228.75 C 753.64 199.60 722.63 181.90 691.33 191.33 C 660.02 200.76 646.89 225.58 635.07 254.07 C 623.26 282.57 616.39 319.52 613.00 351.00
M 395.00 291.00 
C 392.23 361.93 394.17 433.50 392.00 505.00
C 412.25 486.26 424.94 462.19 445.25 442.25 C 465.56 422.31 475.65 397.61 503.23 384.23 C 530.81 370.85 573.68 372.04 606.00 371.00 C 638.32 369.96 682.06 369.62 710.08 382.92 C 738.09 396.23 756.92 412.92 766.93 442.07 C 776.93 471.23 773.18 510.84 755.08 536.08 C 736.97 561.31 716.24 574.50 686.93 583.93 C 657.62 593.35 614.76 592.51 584.00 585.00
C 581.39 598.39 576.82 611.24 572.00 624.00
C 564.19 613.85 550.74 607.02 544.25 595.75 C 537.76 584.49 519.25 579.52 519.33 565.33 C 519.41 551.13 526.69 531.93 527.00 516.00 C 527.31 500.07 531.70 481.96 531.98 464.98 C 532.26 448.00 533.84 427.38 534.00 410.00
C 513.56 419.82 499.32 440.98 483.75 457.75 C 468.18 474.52 452.56 493.05 439.00 511.00
C 469.78 541.76 497.73 574.34 528.75 605.25 C 559.78 636.16 589.81 677.36 634.00 685.00
C 636.15 692.67 632.49 700.20 635.00 708.00
C 578.62 728.40 525.72 688.57 492.25 647.75 C 458.77 606.94 425.45 575.61 392.00 536.00
C 390.85 564.47 393.92 599.31 393.00 627.00 C 392.08 654.69 408.71 677.57 437.00 673.00
C 437.00 681.33 437.00 689.67 437.00 698.00
C 384.00 698.00 331.00 698.00 278.00 698.00
C 279.22 689.77 275.39 681.80 278.00 674.00
C 311.74 671.97 320.15 643.41 319.00 612.00 C 317.85 580.59 319.40 541.78 319.00 509.00 C 318.60 476.22 318.84 439.98 318.00 407.00
C 288.00 407.00 258.00 407.00 228.00 407.00
C 228.00 396.67 228.00 386.33 228.00 376.00
C 239.30 376.09 252.23 372.46 262.03 368.03 C 271.82 363.59 280.05 358.34 288.75 352.75 C 297.44 347.15 303.79 340.22 311.75 333.75 C 319.71 327.28 324.51 318.96 332.75 312.75 C 341.00 306.54 341.65 292.48 353.00 291.00 C 364.36 289.53 382.98 292.10 395.00 291.00
M 495.00 678.00 
C 508.13 685.27 510.35 696.86 522.75 706.25 C 535.15 715.64 521.60 728.54 513.75 738.75 C 505.90 748.97 497.80 759.68 488.25 769.25 C 478.69 778.82 469.81 788.64 458.75 796.75 C 447.69 804.87 436.27 811.66 422.92 816.92 C 409.58 822.18 391.28 826.58 376.00 826.00 C 360.72 825.42 343.78 822.89 330.92 815.08 C 318.07 807.27 309.73 797.22 306.02 782.98 C 302.32 768.73 308.03 752.03 320.75 743.75 C 333.46 735.46 350.32 737.35 360.75 748.25 C 371.19 759.14 373.11 770.18 384.75 780.25 C 396.39 790.32 415.63 787.30 427.25 779.25 C 438.86 771.19 447.14 762.58 455.25 751.25 C 463.37 739.92 470.17 728.83 476.31 716.31 C 482.44 703.78 489.76 691.10 495.00 678.00 Z"/>
    </g>
    <g fill="currentColor" fill-opacity="0.0" stroke-opacity="1.00" stroke-width="0.3">
        <path d="
M 613.00 351.00 
C 616.39 319.52 623.26 282.57 635.07 254.07 C 646.89 225.58 660.02 200.76 691.33 191.33 C 722.63 181.90 753.64 199.60 768.25 228.75 C 782.86 257.91 832.15 253.29 838.22 220.22 C 844.29 187.15 820.88 163.18 791.23 152.77 C 761.58 142.36 717.54 143.73 688.07 153.07 C 658.61 162.42 634.70 175.20 612.25 196.25 C 589.80 217.29 574.68 237.08 560.93 263.93 C 547.17 290.78 537.29 325.23 535.00 356.00
C 560.04 350.44 586.53 350.83 613.00 351.00 Z"/>
    </g>
    <g fill="currentColor" fill-opacity="0.0" stroke-opacity="1.00" stroke-width="0.3">
        <path d="
M 395.00 291.00 
C 382.98 292.10 364.36 289.53 353.00 291.00 C 341.65 292.48 341.00 306.54 332.75 312.75 C 324.51 318.96 319.71 327.28 311.75 333.75 C 303.79 340.22 297.44 347.15 288.75 352.75 C 280.05 358.34 271.82 363.59 262.03 368.03 C 252.23 372.46 239.30 376.09 228.00 376.00
C 228.00 386.33 228.00 396.67 228.00 407.00
C 258.00 407.00 288.00 407.00 318.00 407.00
C 318.84 439.98 318.60 476.22 319.00 509.00 C 319.40 541.78 317.85 580.59 319.00 612.00 C 320.15 643.41 311.74 671.97 278.00 674.00
C 275.39 681.80 279.22 689.77 278.00 698.00
C 331.00 698.00 384.00 698.00 437.00 698.00
C 437.00 689.67 437.00 681.33 437.00 673.00
C 408.71 677.57 392.08 654.69 393.00 627.00 C 393.92 599.31 390.85 564.47 392.00 536.00
C 425.45 575.61 458.77 606.94 492.25 647.75 C 525.72 688.57 578.62 728.40 635.00 708.00
C 632.49 700.20 636.15 692.67 634.00 685.00
C 589.81 677.36 559.78 636.16 528.75 605.25 C 497.73 574.34 469.78 541.76 439.00 511.00
C 452.56 493.05 468.18 474.52 483.75 457.75 C 499.32 440.98 513.56 419.82 534.00 410.00
C 533.84 427.38 532.26 448.00 531.98 464.98 C 531.70 481.96 527.31 500.07 527.00 516.00 C 526.69 531.93 519.41 551.13 519.33 565.33 C 519.25 579.52 537.76 584.49 544.25 595.75 C 550.74 607.02 564.19 613.85 572.00 624.00
C 576.82 611.24 581.39 598.39 584.00 585.00
C 614.76 592.51 657.62 593.35 686.93 583.93 C 716.24 574.50 736.97 561.31 755.08 536.08 C 773.18 510.84 776.93 471.23 766.93 442.07 C 756.92 412.92 738.09 396.23 710.08 382.92 C 682.06 369.62 638.32 369.96 606.00 371.00 C 573.68 372.04 530.81 370.85 503.23 384.23 C 475.65 397.61 465.56 422.31 445.25 442.25 C 424.94 462.19 412.25 486.26 392.00 505.00
C 394.17 433.50 392.23 361.93 395.00 291.00
M 591.00 552.00 
C 598.61 504.25 603.43 455.78 607.00 407.00
C 639.37 401.86 677.94 409.17 690.92 441.08 C 703.91 472.98 702.15 505.97 681.25 533.25 C 660.35 560.53 621.39 559.40 591.00 552.00 Z"/>
    </g>
    <g fill="currentColor" fill-opacity="0.0" stroke-opacity="0.00" stroke-width="0.3">
        <path d="
M 591.00 552.00 
C 621.39 559.40 660.35 560.53 681.25 533.25 C 702.15 505.97 703.91 472.98 690.92 441.08 C 677.94 409.17 639.37 401.86 607.00 407.00
C 603.43 455.78 598.61 504.25 591.00 552.00 Z"/>
    </g>
    <g fill="currentColor" fill-opacity="0.0" stroke-opacity="1.00" stroke-width="0.3">
        <path d="
M 495.00 678.00 
C 489.76 691.10 482.44 703.78 476.31 716.31 C 470.17 728.83 463.37 739.92 455.25 751.25 C 447.14 762.58 438.86 771.19 427.25 779.25 C 415.63 787.30 396.39 790.32 384.75 780.25 C 373.11 770.18 371.19 759.14 360.75 748.25 C 350.32 737.35 333.46 735.46 320.75 743.75 C 308.03 752.03 302.32 768.73 306.02 782.98 C 309.73 797.22 318.07 807.27 330.92 815.08 C 343.78 822.89 360.72 825.42 376.00 826.00 C 391.28 826.58 409.58 822.18 422.92 816.92 C 436.27 811.66 447.69 804.87 458.75 796.75 C 469.81 788.64 478.69 778.82 488.25 769.25 C 497.80 759.68 505.90 748.97 513.75 738.75 C 521.60 728.54 535.15 715.64 522.75 706.25 C 510.35 696.86 508.13 685.27 495.00 678.00 Z"/>
    </g>
    <g fill="currentColor" fill-opacity="0.00">
        <path d="
M 0.00 1024.00 
L 1024.00 1024.00
L 1024.00 0.00
L 0.00 0.00
L 0.00 1024.00
M 613.00 351.00 
C 586.53 350.83 560.04 350.44 535.00 356.00
C 537.29 325.23 547.17 290.78 560.93 263.93 C 574.68 237.08 589.80 217.29 612.25 196.25 C 634.70 175.20 658.61 162.42 688.07 153.07 C 717.54 143.73 761.58 142.36 791.23 152.77 C 820.88 163.18 844.29 187.15 838.22 220.22 C 832.15 253.29 782.86 257.91 768.25 228.75 C 753.64 199.60 722.63 181.90 691.33 191.33 C 660.02 200.76 646.89 225.58 635.07 254.07 C 623.26 282.57 616.39 319.52 613.00 351.00
M 395.00 291.00 
C 392.23 361.93 394.17 433.50 392.00 505.00
C 412.25 486.26 424.94 462.19 445.25 442.25 C 465.56 422.31 475.65 397.61 503.23 384.23 C 530.81 370.85 573.68 372.04 606.00 371.00 C 638.32 369.96 682.06 369.62 710.08 382.92 C 738.09 396.23 756.92 412.92 766.93 442.07 C 776.93 471.23 773.18 510.84 755.08 536.08 C 736.97 561.31 716.24 574.50 686.93 583.93 C 657.62 593.35 614.76 592.51 584.00 585.00
C 581.39 598.39 576.82 611.24 572.00 624.00
C 564.19 613.85 550.74 607.02 544.25 595.75 C 537.76 584.49 519.25 579.52 519.33 565.33 C 519.41 551.13 526.69 531.93 527.00 516.00 C 527.31 500.07 531.70 481.96 531.98 464.98 C 532.26 448.00 533.84 427.38 534.00 410.00
C 513.56 419.82 499.32 440.98 483.75 457.75 C 468.18 474.52 452.56 493.05 439.00 511.00
C 469.78 541.76 497.73 574.34 528.75 605.25 C 559.78 636.16 589.81 677.36 634.00 685.00
C 636.15 692.67 632.49 700.20 635.00 708.00
C 578.62 728.40 525.72 688.57 492.25 647.75 C 458.77 606.94 425.45 575.61 392.00 536.00
C 390.85 564.47 393.92 599.31 393.00 627.00 C 392.08 654.69 408.71 677.57 437.00 673.00
C 437.00 681.33 437.00 689.67 437.00 698.00
C 384.00 698.00 331.00 698.00 278.00 698.00
C 279.22 689.77 275.39 681.80 278.00 674.00
C 311.74 671.97 320.15 643.41 319.00 612.00 C 317.85 580.59 319.40 541.78 319.00 509.00 C 318.60 476.22 318.84 439.98 318.00 407.00
C 288.00 407.00 258.00 407.00 228.00 407.00
C 228.00 396.67 228.00 386.33 228.00 376.00
C 239.30 376.09 252.23 372.46 262.03 368.03 C 271.82 363.59 280.05 358.34 288.75 352.75 C 297.44 347.15 303.79 340.22 311.75 333.75 C 319.71 327.28 324.51 318.96 332.75 312.75 C 341.00 306.54 341.65 292.48 353.00 291.00 C 364.36 289.53 382.98 292.10 395.00 291.00
M 495.00 678.00 
C 508.13 685.27 510.35 696.86 522.75 706.25 C 535.15 715.64 521.60 728.54 513.75 738.75 C 505.90 748.97 497.80 759.68 488.25 769.25 C 478.69 778.82 469.81 788.64 458.75 796.75 C 447.69 804.87 436.27 811.66 422.92 816.92 C 409.58 822.18 391.28 826.58 376.00 826.00 C 360.72 825.42 343.78 822.89 330.92 815.08 C 318.07 807.27 309.73 797.22 306.02 782.98 C 302.32 768.73 308.03 752.03 320.75 743.75 C 333.46 735.46 350.32 737.35 360.75 748.25 C 371.19 759.14 373.11 770.18 384.75 780.25 C 396.39 790.32 415.63 787.30 427.25 779.25 C 438.86 771.19 447.14 762.58 455.25 751.25 C 463.37 739.92 470.17 728.83 476.31 716.31 C 482.44 703.78 489.76 691.10 495.00 678.00 Z"/>
    </g>
    <g fill="currentColor" fill-opacity="1.00">
        <path d="
M 613.00 351.00 
C 616.39 319.52 623.26 282.57 635.07 254.07 C 646.89 225.58 660.02 200.76 691.33 191.33 C 722.63 181.90 753.64 199.60 768.25 228.75 C 782.86 257.91 832.15 253.29 838.22 220.22 C 844.29 187.15 820.88 163.18 791.23 152.77 C 761.58 142.36 717.54 143.73 688.07 153.07 C 658.61 162.42 634.70 175.20 612.25 196.25 C 589.80 217.29 574.68 237.08 560.93 263.93 C 547.17 290.78 537.29 325.23 535.00 356.00
C 560.04 350.44 586.53 350.83 613.00 351.00 Z"/>
    </g>
    <g fill="currentColor" fill-opacity="1.00">
        <path d="
M 395.00 291.00 
C 382.98 292.10 364.36 289.53 353.00 291.00 C 341.65 292.48 341.00 306.54 332.75 312.75 C 324.51 318.96 319.71 327.28 311.75 333.75 C 303.79 340.22 297.44 347.15 288.75 352.75 C 280.05 358.34 271.82 363.59 262.03 368.03 C 252.23 372.46 239.30 376.09 228.00 376.00
C 228.00 386.33 228.00 396.67 228.00 407.00
C 258.00 407.00 288.00 407.00 318.00 407.00
C 318.84 439.98 318.60 476.22 319.00 509.00 C 319.40 541.78 317.85 580.59 319.00 612.00 C 320.15 643.41 311.74 671.97 278.00 674.00
C 275.39 681.80 279.22 689.77 278.00 698.00
C 331.00 698.00 384.00 698.00 437.00 698.00
C 437.00 689.67 437.00 681.33 437.00 673.00
C 408.71 677.57 392.08 654.69 393.00 627.00 C 393.92 599.31 390.85 564.47 392.00 536.00
C 425.45 575.61 458.77 606.94 492.25 647.75 C 525.72 688.57 578.62 728.40 635.00 708.00
C 632.49 700.20 636.15 692.67 634.00 685.00
C 589.81 677.36 559.78 636.16 528.75 605.25 C 497.73 574.34 469.78 541.76 439.00 511.00
C 452.56 493.05 468.18 474.52 483.75 457.75 C 499.32 440.98 513.56 419.82 534.00 410.00
C 533.84 427.38 532.26 448.00 531.98 464.98 C 531.70 481.96 527.31 500.07 527.00 516.00 C 526.69 531.93 519.41 551.13 519.33 565.33 C 519.25 579.52 537.76 584.49 544.25 595.75 C 550.74 607.02 564.19 613.85 572.00 624.00
C 576.82 611.24 581.39 598.39 584.00 585.00
C 614.76 592.51 657.62 593.35 686.93 583.93 C 716.24 574.50 736.97 561.31 755.08 536.08 C 773.18 510.84 776.93 471.23 766.93 442.07 C 756.92 412.92 738.09 396.23 710.08 382.92 C 682.06 369.62 638.32 369.96 606.00 371.00 C 573.68 372.04 530.81 370.85 503.23 384.23 C 475.65 397.61 465.56 422.31 445.25 442.25 C 424.94 462.19 412.25 486.26 392.00 505.00
C 394.17 433.50 392.23 361.93 395.00 291.00
M 591.00 552.00 
C 598.61 504.25 603.43 455.78 607.00 407.00
C 639.37 401.86 677.94 409.17 690.92 441.08 C 703.91 472.98 702.15 505.97 681.25 533.25 C 660.35 560.53 621.39 559.40 591.00 552.00 Z"/>
    </g>
    <g fill="currentColor" fill-opacity="0.00">
        <path d="
M 591.00 552.00 
C 621.39 559.40 660.35 560.53 681.25 533.25 C 702.15 505.97 703.91 472.98 690.92 441.08 C 677.94 409.17 639.37 401.86 607.00 407.00
C 603.43 455.78 598.61 504.25 591.00 552.00 Z"/>
    </g>
    <g fill="currentColor" fill-opacity="1.00">
        <path d="
M 495.00 678.00 
C 489.76 691.10 482.44 703.78 476.31 716.31 C 470.17 728.83 463.37 739.92 455.25 751.25 C 447.14 762.58 438.86 771.19 427.25 779.25 C 415.63 787.30 396.39 790.32 384.75 780.25 C 373.11 770.18 371.19 759.14 360.75 748.25 C 350.32 737.35 333.46 735.46 320.75 743.75 C 308.03 752.03 302.32 768.73 306.02 782.98 C 309.73 797.22 318.07 807.27 330.92 815.08 C 343.78 822.89 360.72 825.42 376.00 826.00 C 391.28 826.58 409.58 822.18 422.92 816.92 C 436.27 811.66 447.69 804.87 458.75 796.75 C 469.81 788.64 478.69 778.82 488.25 769.25 C 497.80 759.68 505.90 748.97 513.75 738.75 C 521.60 728.54 535.15 715.64 522.75 706.25 C 510.35 696.86 508.13 685.27 495.00 678.00 Z"/>
    </g>
</svg>